<svg width="613" height="137" viewBox="0 0 613 137" fill="none" xmlns="http://www.w3.org/2000/svg">
<path fill-rule="evenodd" clip-rule="evenodd" d="M235.092 40.3905C248.123 40.4044 254.73 40.651 260.23 42.5855C274.097 47.4273 276.046 57.3632 276.046 64.1481C276.046 72.4845 273.035 81.3321 261.695 84.612L278.361 113.378H288.489V125.298C284.473 125.538 281.936 125.768 279.265 125.957C276.599 126.173 274.465 126.285 272.869 126.285C269.592 126.285 267.141 125.791 265.521 124.787C263.878 123.813 262.417 122.106 261.145 119.643L243.641 87.5703H234.143V106.436H215.929V53.3312H208.202V40.3898L235.092 40.3905ZM69.3266 40.0925C73.4286 40.0925 76.2167 40.879 77.7081 42.4425C79.198 44.0188 79.899 46.598 79.899 50.1871V93.2337H88.0187V104.939C88.0187 104.939 78.1668 106.302 72.3031 106.302C69.1477 106.302 66.8006 105.84 65.2226 104.939C63.655 104.051 62.604 102.613 62.0756 100.642C59.1915 102.795 51.8006 107.681 42.7703 107.681C36.8986 107.681 30.532 105.994 25.7695 101.448C23.9576 99.7029 20.9192 94.8688 20.9192 85.415V53.149H12.7964V41.3094C15.3353 40.9381 18.1248 40.6574 21.1959 40.425C24.2308 40.1918 26.6837 40.0925 28.5232 40.0925C32.6286 40.0925 35.4233 40.879 36.9195 42.4425C38.3966 44.0188 39.1382 46.598 39.1382 50.1871V82.8585C39.1382 85.8211 39.6537 88.2342 41.2348 89.446C45.1969 92.5066 53.445 91.3626 55.5858 91.1292C57.7325 90.9145 59.7692 90.5845 61.6869 90.1264V53.149H53.5912V41.3094C56.1385 40.9381 58.928 40.6574 61.9827 40.425C65.0391 40.1918 67.4952 40.0925 69.3266 40.0925ZM186.692 40.0925C190.894 40.0925 193.709 40.879 195.206 42.4425C196.704 44.0188 197.432 46.6014 197.432 50.1871V106.44H179.218V53.1526H170.572V41.4314C171.865 41.2541 173.27 41.1042 174.772 40.9593C174.772 40.9593 182.899 40.0925 186.692 40.0925ZM139.328 38.7428C154.126 38.7428 159.113 49.9582 159.113 60.9646V93.2337H167.054V104.939C167.054 104.939 160.043 105.816 158.658 105.963C157.262 106.085 155.899 106.179 154.603 106.235C153.412 106.266 152.455 106.281 151.636 106.302H151.328C151.143 106.302 150.979 106.274 150.793 106.274C150.461 106.266 150.137 106.262 149.812 106.235C148.56 106.172 147.459 106.014 146.509 105.776C146.421 105.761 146.364 105.741 146.289 105.717C145.518 105.523 144.032 104.971 143.119 103.999C141.618 102.402 140.906 99.778 140.906 96.1801V63.5198C140.906 60.4755 140.198 58.2642 138.793 56.9221C137.922 56.1154 136.785 55.5496 135.398 55.309C127.187 53.8647 119.93 55.8069 118.092 56.2614V105.745H99.8648V53.149H90.8357V41.4288C93.3686 40.9848 101.986 40.0925 107.215 40.0925C110.449 40.0925 112.877 40.5397 114.502 41.4288C116.109 42.3292 117.221 43.7298 117.825 45.6135C125.474 39.2132 135.487 38.7428 139.328 38.7428ZM244.197 52.9679H234.143V75.2727H244.912C254.306 75.2727 257.865 69.1464 257.865 63.9066C257.865 58.9079 256.424 52.9679 244.197 52.9679ZM185.513 8.53101C188.55 8.53101 190.869 9.21412 192.38 10.5488C193.833 11.8685 194.581 14.1353 194.581 17.3104V19.1064C194.581 22.2856 193.852 24.5249 192.38 25.797C190.869 27.0874 188.561 27.7478 185.513 27.7478H184.555C181.444 27.7478 179.101 27.101 177.65 25.8056C176.216 24.5374 175.479 22.2815 175.479 19.1064V17.3104C175.479 14.151 176.216 11.8685 177.65 10.5488C179.131 9.20963 181.455 8.53101 184.555 8.53101H185.513Z" fill="white"/>
<path d="M306.848 65.9907H323.127V62.6253H310.653V40.3843H306.848V65.9907ZM344.647 65.9907H348.597L338.538 40.3843H335.026L324.966 65.9907H328.881L331.331 59.4794H342.196L344.647 65.9907ZM332.612 56.1506L336.782 45.1398L340.952 56.1506H332.612ZM371.411 66.2834C377.3 66.2834 381.251 62.8814 381.251 57.0285V40.3843H377.593V57.1382C377.593 60.7963 375.106 62.8814 371.411 62.8814C367.753 62.8814 365.265 60.7963 365.265 57.1382V40.3843H361.607V57.0285C361.607 62.8814 365.558 66.2834 371.411 66.2834ZM387.078 65.9907H390.883V46.3104L403.247 65.9907H407.454V40.3843H403.649V60.1013L391.322 40.3843H387.078V65.9907ZM413.753 65.9907H417.558V40.3843H413.753V65.9907ZM431.059 65.9907H434.827L444.375 40.3843H440.534L432.925 61.4182L425.353 40.3843H421.512L431.059 65.9907ZM448.313 65.9907H465.141V62.6253H452.118V54.4678H462.324V51.1024H452.118V43.7497H464.738V40.3843H448.313V65.9907ZM484.868 53.846C487.136 52.712 488.636 50.8098 488.636 48.0663C488.636 43.4937 485.49 40.3843 480.332 40.3843H470.309V65.9907H474.113V55.8945H480.515C482.71 55.8945 484.21 57.504 484.392 59.772L484.905 65.9907H488.599L488.087 59.4428C487.941 56.9553 486.734 54.9434 484.868 53.846ZM474.113 43.6766H480.222C483.551 43.6766 484.831 45.7251 484.831 48.0663C484.831 50.3708 483.551 52.5291 480.222 52.5291H474.113V43.6766ZM503.038 66.2834C508.525 66.2834 512.476 63.5398 512.476 58.8575C512.476 49.0905 497.88 53.2241 497.88 47.0054C497.88 44.8472 499.746 43.4571 502.819 43.4571C505.965 43.4571 508.013 45.1764 508.269 47.8102H511.964C511.635 43.1279 508.05 40.0917 502.819 40.0917C497.661 40.0917 494.076 42.9084 494.076 47.0054C494.076 56.4432 508.599 52.7486 508.599 58.8941C508.599 61.6742 506.257 62.918 503.038 62.918C499.417 62.918 497.259 60.7963 496.966 57.504H493.271C493.564 62.8082 497.259 66.2834 503.038 66.2834ZM517.408 65.9907H521.212V40.3843H517.408V65.9907ZM527.508 65.9907H535.372C542.506 65.9907 548.285 61.5279 548.285 53.1875C548.285 44.8472 542.506 40.3843 535.372 40.3843H527.508V65.9907ZM531.312 62.6253V43.7497H535.153C539.908 43.7497 544.371 46.4201 544.371 53.1875C544.371 59.9549 539.908 62.6253 535.153 62.6253H531.312ZM569.807 65.9907H573.758L563.698 40.3843H560.187L550.127 65.9907H554.041L556.492 59.4794H567.356L569.807 65.9907ZM557.772 56.1506L561.942 45.1398L566.113 56.1506H557.772ZM577.571 65.9907H585.436C592.569 65.9907 598.349 61.5279 598.349 53.1875C598.349 44.8472 592.569 40.3843 585.436 40.3843H577.571V65.9907ZM581.376 62.6253V43.7497H585.217C589.972 43.7497 594.435 46.4201 594.435 53.1875C594.435 59.9549 589.972 62.6253 585.217 62.6253H581.376ZM306.848 105.991H323.675V102.625H310.653V94.4678H320.859V91.1024H310.653V83.7497H323.273V80.3843H306.848V105.991ZM328.844 105.991H332.648V86.3104L345.012 105.991H349.219V80.3843H345.415V100.101L333.087 80.3843H328.844V105.991ZM365.047 105.991H368.851V80.3843H365.047V105.991ZM375.147 105.991H378.951V86.3104L391.315 105.991H395.522V80.3843H391.718V100.101L379.39 80.3843H375.147V105.991ZM407.638 105.991H411.443V83.7497H419.454V80.3843H399.627V83.7497H407.638V105.991ZM423.282 105.991H440.109V102.625H427.086V94.4678H437.292V91.1024H427.086V83.7497H439.706V80.3843H423.282V105.991ZM459.836 93.846C462.104 92.712 463.604 90.8098 463.604 88.0663C463.604 83.4937 460.458 80.3843 455.3 80.3843H445.277V105.991H449.081V95.8945H455.483C457.678 95.8945 459.178 97.504 459.361 99.772L459.873 105.991H463.567L463.055 99.4428C462.909 96.9553 461.702 94.9434 459.836 93.846ZM449.081 83.6766H455.19C458.519 83.6766 459.799 85.7251 459.799 88.0663C459.799 90.3708 458.519 92.5291 455.19 92.5291H449.081V83.6766ZM470.273 105.991H474.078V86.3104L486.442 105.991H490.649V80.3843H486.844V100.101L474.517 80.3843H470.273V105.991ZM496.948 105.991H513.776V102.625H500.753V94.4678H510.959V91.1024H500.753V83.7497H513.373V80.3843H496.948V105.991ZM524.76 105.991H528.565V83.7497H536.576V80.3843H516.749V83.7497H524.76V105.991Z" fill="white"/>
</svg>
